PathFileType	4	(X/Y/Z)	s09c0301.trc
DataRate	CameraRate	NumFrames	NumMarkers	Units	OrigDataRate	OrigDataStartFrame	OrigNumFrames
200	200	7	50	mm	200	250	2000
Frame#	Time	racr			lacr			c7			jug			rlel			rdr			llel			ldr			s2			lic			ric			lasi			rasi			rpsi			lpsi			rgt			lgt			rth1			rth2			rth3			rth4			rlfc			rmfc			rsh1			rsh2			rsh3			rsh4			rlmal			rmmal			rcal			rtoe			rmt5			lth1			lth2			lth4			lth3			llfc			lmfc			llmal			lmmal			lcal			lmt5			lsh1			lsh2			lsh3			lsh4			ltoe			SBIKE			LBIKE			RBIKE			
		X1	Y1	Z1	X2	Y2	Z2	X3	Y3	Z3	X4	Y4	Z4	X5	Y5	Z5	X6	Y6	Z6	X7	Y7	Z7	X8	Y8	Z8	X9	Y9	Z9	X10	Y10	Z10	X11	Y11	Z11	X12	Y12	Z12	X13	Y13	Z13	X14	Y14	Z14	X15	Y15	Z15	X16	Y16	Z16	X17	Y17	Z17	X18	Y18	Z18	X19	Y19	Z19	X20	Y20	Z20	X21	Y21	Z21	X22	Y22	Z22	X23	Y23	Z23	X24	Y24	Z24	X25	Y25	Z25	X26	Y26	Z26	X27	Y27	Z27	X28	Y28	Z28	X29	Y29	Z29	X30	Y30	Z30	X31	Y31	Z31	X32	Y32	Z32	X33	Y33	Z33	X34	Y34	Z34	X35	Y35	Z35	X36	Y36	Z36	X37	Y37	Z37	X38	Y38	Z38	X39	Y39	Z39	X40	Y40	Z40	X41	Y41	Z41	X42	Y42	Z42	X43	Y43	Z43	X44	Y44	Z44	X45	Y45	Z45	X46	Y46	Z46	X47	Y47	Z47	X48	Y48	Z48	X49	Y49	Z49	X50	Y50	Z50	
250	1.2500	432.641605	1250.401108	-68.373309	444.925347	1258.408514	-395.895431	399.005818	1316.701365	-232.198292	406.119428	1175.363081	-235.143964	497.960481	1027.943090	20.464423	704.693361	880.426548	-38.962059	491.166099	1020.090588	-518.438575	695.726257	879.796280	-457.065515	-68.570330	1123.406741	-230.199032	69.981801	1126.143805	-376.180909	82.575982	1121.682420	-85.605360	114.512778	1068.550711	-357.488739	123.859338	1063.729236	-104.642149	-36.575464	1155.804678	-169.340535	-41.146091	1163.234739	-280.235158	52.025246	973.393750	-41.087369	39.997221	1004.059091	-425.903050	147.370124	869.004254	-45.191371	221.321506	823.012062	-51.172313	258.557492	742.602073	-60.176879	246.038466	844.321571	-67.981945	305.885935	655.632444	-94.399493	288.983017	643.572933	-191.224136	230.784569	584.043038	-65.372960	194.943286	502.875193	-81.969944	124.101703	450.791317	-82.850757	214.999590	491.685134	-114.698571	58.367633	376.845104	-85.311598	67.020054	386.344444	-164.432362	-29.868726	367.467827	-128.119673	217.343161	274.310493	-123.036020	132.652534	285.689322	-60.981217	159.804436	934.029643	-427.355015	243.734775	920.733736	-421.182113	259.537533	952.972900	-408.956756	313.721741	863.619815	-420.687791	392.754725	803.516053	-402.159176	412.576160	797.436480	-300.984132	349.821298	443.586987	-406.567919	366.759178	453.738461	-336.332860	282.358411	404.718643	-369.407732	450.010364	363.360805	-433.481791	380.338230	704.348644	-423.927634	394.357247	618.883865	-415.210812	362.386935	536.012484	-413.200365	420.290464	618.883116	-385.012323	541.562319	382.131225	-365.692105	-65.372387	852.300481	-240.915229	21.133255	83.854175	-442.126459	21.155077	83.893533	-43.965940	
251	1.2550	432.538802	1250.584301	-68.332580	445.065116	1258.705903	-395.770841	398.785584	1316.874641	-232.058496	406.001735	1175.402648	-235.080092	497.995346	1028.065003	20.278755	704.709682	880.390966	-38.932993	491.199579	1020.236651	-518.266852	695.715396	879.824092	-457.018286	-68.696208	1123.300107	-230.229901	69.881227	1126.134061	-376.283490	82.434404	1121.653789	-85.635975	114.435719	1068.538780	-357.530281	123.731302	1063.725140	-104.673410	-36.762297	1155.717522	-169.396043	-41.291066	1163.144986	-280.249302	51.946495	973.371712	-41.089344	39.941094	1003.971840	-425.917671	147.348862	869.034205	-45.199069	221.348328	823.086328	-51.207067	258.606895	742.696937	-60.197833	246.045953	844.425890	-67.977500	305.988389	655.821412	-94.454440	289.086732	643.700406	-191.237956	230.855445	584.221512	-65.397787	195.048263	503.050644	-81.967540	124.156393	450.961850	-82.878586	215.097513	491.878840	-114.679529	58.399775	377.050913	-85.312141	67.055152	386.561737	-164.428928	-29.851866	367.709550	-128.122884	217.333765	274.397825	-123.026302	132.635569	285.817608	-60.971444	159.746136	933.880982	-427.345488	243.649325	920.576424	-421.193596	259.471199	952.780757	-409.014955	313.618520	863.414826	-420.703313	392.669296	803.304646	-402.150187	412.450012	797.319696	-300.769312	349.819203	443.290988	-406.501272	366.711367	453.512615	-336.340517	282.340195	404.474955	-369.409944	449.996802	363.407058	-433.867926	380.272277	704.116056	-423.948177	394.277250	618.648611	-415.250685	362.341415	535.708691	-413.209834	420.228740	618.698463	-385.022344	541.578335	382.035477	-365.712722	-65.373226	852.300359	-240.915566	21.129299	83.855978	-442.110934	21.159162	83.900893	-43.973733	
252	1.2600	432.457229	1250.768329	-68.357775	445.230093	1258.919727	-395.621534	398.579697	1317.009038	-231.946522	405.900965	1175.527864	-234.979916	498.014949	1028.199496	20.096504	704.713250	880.353565	-38.955109	491.204698	1020.339960	-518.136637	695.679800	879.845461	-456.958745	-68.825570	1123.211212	-230.242853	69.736557	1126.095300	-376.313309	82.279061	1121.629446	-85.659719	114.350264	1068.519030	-357.575022	123.628971	1063.716834	-104.675510	-36.922198	1155.652542	-169.414013	-41.434359	1163.042518	-280.272939	51.861263	973.351157	-41.082828	39.885937	1003.873997	-425.947709	147.336131	869.116036	-45.207303	221.386279	823.221332	-51.209631	258.687058	742.792292	-60.217598	246.042121	844.571469	-68.001036	306.086263	655.942452	-94.507675	289.094956	643.935714	-191.398902	230.944223	584.372454	-65.424754	195.117464	503.158896	-82.007163	124.175790	451.212725	-82.868889	215.167622	492.043405	-114.701008	58.453238	377.258761	-85.315463	67.084459	386.796716	-164.431811	-29.847167	367.958251	-128.116863	217.321384	274.468149	-123.021144	132.613950	285.980197	-60.961382	159.654531	933.747308	-427.376775	243.560784	920.412489	-421.247306	259.416915	952.592276	-409.045223	313.510364	863.189862	-420.726030	392.551392	803.033076	-402.161982	412.339511	797.178540	-300.647743	349.781358	443.004130	-406.498012	366.541843	453.394830	-336.390764	282.313245	404.215296	-369.431235	450.014864	363.224578	-433.889268	380.182954	703.877849	-423.998431	394.198310	618.367109	-415.282247	362.284345	535.468470	-413.231907	420.150927	618.516827	-385.076674	541.566736	381.930838	-365.709977	-65.369103	852.284756	-240.905212	21.147799	83.841697	-442.138652	21.152433	83.888534	-43.962968	
253	1.2650	432.336874	1251.002867	-68.339022	445.442365	1259.163157	-395.442234	398.396701	1317.190822	-231.936947	405.799088	1175.615932	-234.898032	498.054659	1028.325641	19.892239	704.718251	880.352472	-38.952529	491.257456	1020.494697	-517.933110	695.691273	879.868582	-456.907481	-68.982705	1123.097377	-230.329410	69.594980	1126.049332	-376.345488	82.117196	1121.602915	-85.678751	114.287148	1068.508637	-357.583134	123.489806	1063.717318	-104.677605	-37.081992	1155.587561	-169.432028	-41.564765	1162.943204	-280.305996	51.782365	973.332276	-41.121142	39.850975	1003.764697	-425.941290	147.327102	869.170139	-45.223228	221.432265	823.311217	-51.218639	258.757332	742.896926	-60.236796	246.055017	844.701624	-68.016293	306.184564	656.085692	-94.511846	289.207740	644.082649	-191.416598	231.010345	584.624281	-65.455277	195.180285	503.320325	-81.982823	124.275460	451.389616	-82.906312	215.242953	492.222954	-114.736956	58.471146	377.508422	-85.345347	67.148401	386.992547	-164.431714	-29.803948	368.216879	-128.120658	217.297308	274.565311	-123.023696	132.593481	286.121449	-60.967820	159.582704	933.587133	-427.385367	243.491319	920.229641	-421.241075	259.371022	952.391044	-409.073348	313.399306	862.943350	-420.722124	392.460548	802.737891	-402.142351	412.293043	797.066254	-300.780157	349.760120	442.702369	-406.499582	366.694598	452.852003	-336.649595	282.120011	403.854284	-369.482816	450.022817	363.054922	-433.879186	380.074914	703.600284	-424.015938	394.124976	618.162039	-415.306765	362.235280	535.242079	-413.237245	420.085666	618.249839	-385.114079	541.563755	381.807104	-365.717464	-65.376067	852.287154	-240.925276	21.136259	83.858011	-442.134185	21.154143	83.888273	-43.963740	
254	1.2700	432.230598	1251.266631	-68.352777	445.656186	1259.374673	-395.231581	398.175313	1317.370748	-231.826677	405.710948	1175.735487	-234.819603	498.086378	1028.476857	19.709493	704.730234	880.334003	-38.968992	491.266725	1020.578720	-517.802604	695.681890	879.894219	-456.821915	-69.093152	1123.013766	-230.326130	69.518087	1126.034002	-376.434844	81.950300	1121.560672	-85.681909	114.227466	1068.495923	-357.591694	123.363945	1063.722349	-104.665602	-37.226784	1155.535449	-169.483043	-41.697249	1162.858807	-280.327278	51.695167	973.333241	-41.126287	39.801677	1003.645491	-425.942954	147.322917	869.251548	-45.256838	221.458821	823.413082	-51.248428	258.831057	743.061982	-60.257120	246.177015	844.615576	-68.179967	306.291275	656.238920	-94.554466	289.332328	644.243455	-191.454543	231.093612	584.814596	-65.479856	195.267057	503.501888	-82.004746	124.343898	451.584561	-82.920757	215.299934	492.395314	-114.766655	58.549345	377.754932	-85.322277	67.278947	387.158021	-164.456585	-29.752943	368.585861	-128.109339	217.281237	274.667464	-123.033092	132.557999	286.293423	-60.964394	159.538555	933.424919	-427.405517	243.415507	920.014179	-421.273112	259.361105	952.120955	-409.048941	313.291248	862.710380	-420.749799	392.340746	802.497214	-402.149516	412.158613	796.911405	-300.556231	349.723866	442.443527	-406.523908	366.667762	452.660685	-336.665297	282.107115	403.509964	-369.492432	450.055562	362.885590	-433.902858	380.007760	703.373031	-424.052944	394.050429	617.952067	-415.311834	362.175480	535.005239	-413.248372	420.035484	617.987789	-385.154132	541.568257	381.694977	-365.705894	-65.368078	852.279279	-240.926058	21.134496	83.859390	-442.121067	21.149154	83.887123	-43.973258	
255	1.2750	432.098087	1251.494108	-68.325036	445.888573	1259.521538	-395.055465	398.005993	1317.478468	-231.745164	405.586118	1175.875617	-234.709998	498.138098	1028.629584	19.491769	704.725892	880.299060	-39.011441	491.298474	1020.623578	-517.663013	695.722940	879.923074	-456.800351	-69.224423	1122.947239	-230.381751	69.434020	1126.002100	-376.510532	81.768435	1121.552743	-85.679255	114.165216	1068.465775	-357.590118	123.200572	1063.687228	-104.649468	-37.390023	1155.451534	-169.507217	-41.573371	1162.691771	-279.896190	51.588279	973.335447	-41.122540	39.761764	1003.536983	-425.937184	147.335756	869.339495	-45.287595	221.479287	823.519649	-51.276622	258.923200	743.254346	-60.266048	246.182594	844.783073	-68.200830	306.393262	656.405259	-94.602529	289.446560	644.397316	-191.458856	231.169440	585.014201	-65.498940	195.364399	503.668350	-82.009839	124.405630	451.779004	-82.942212	215.388267	492.595108	-114.754413	58.654482	378.022765	-85.260922	66.779490	388.867224	-165.074624	-29.399101	368.580488	-127.983433	217.271897	274.780713	-123.019509	132.538068	286.463471	-60.962407	159.494409	933.237519	-427.415664	243.342391	919.765531	-421.325337	259.333288	951.870135	-409.061189	313.197018	862.475259	-420.756059	392.218648	802.259974	-402.176191	412.062970	796.735603	-300.480804	349.687822	442.183744	-406.546065	366.640346	452.476838	-336.655381	282.275690	403.162599	-369.414019	450.065161	362.671542	-433.915811	379.945916	703.084425	-424.039547	393.974002	617.675469	-415.277303	362.113118	534.747887	-413.261198	419.981307	617.739788	-385.246131	541.571198	381.175982	-365.218224	-65.373579	852.295975	-240.938765	21.144303	83.858082	-442.147206	21.157161	83.885715	-43.968301	
256	1.2800	431.975747	1251.748301	-68.305099	446.104924	1259.669284	-394.867377	397.791497	1317.584671	-231.631598	405.484898	1175.985940	-234.666401	498.177614	1028.799885	19.271985	704.722588	880.277179	-39.053912	491.306324	1020.654908	-517.569504	695.713620	879.957755	-456.766288	-69.346712	1122.875459	-230.439638	69.283081	1125.933021	-376.504678	81.613596	1121.504663	-85.672078	114.108186	1068.437822	-357.589701	123.052848	1063.659513	-104.651902	-37.550892	1155.373058	-169.556928	-41.704268	1162.603373	-279.961345	51.519756	973.348480	-41.135432	39.704047	1003.418679	-425.945574	147.335161	869.415422	-45.287725	221.520999	823.629129	-51.284598	258.999057	743.458844	-60.308401	246.193481	844.943928	-68.244416	306.491406	656.576104	-94.627231	289.587530	644.541395	-191.441980	231.263747	585.196838	-65.517690	195.422298	503.902684	-82.029135	124.179103	452.360800	-82.811021	215.410765	492.923976	-114.735497	58.678846	378.251194	-85.258586	66.756293	389.184820	-165.103187	-29.370348	368.903829	-127.994199	217.266403	274.910016	-123.019650	132.528275	286.641383	-60.965085	159.431897	933.029359	-427.429786	243.284150	919.525512	-421.338348	259.274476	951.653858	-409.131381	313.090783	862.243943	-420.752698	392.118409	802.027967	-402.209779	411.919562	796.558737	-300.276953	349.643418	441.935891	-406.569418	366.608092	452.256657	-336.682227	282.268868	402.799966	-369.424778	450.063142	362.478687	-433.936423	379.844859	702.818282	-424.053073	393.887690	617.413033	-415.270371	362.040745	534.435843	-413.247611	419.876146	617.433732	-385.173057	541.572758	380.995488	-365.196011	-65.379793	852.293778	-240.910585	21.130316	83.834831	-442.149279	21.170744	83.881164	-43.959676	
